<?xml version="1.0" encoding="UTF-8"?>
<svg version="1.1" viewBox="0 0 2048 2048" xmlns="http://www.w3.org/2000/svg">
<path d="m787.5 127.6c-50.522 2.494-72.043 4.035-104 7.448-65.698 7.017-126.08 18.018-175.59 31.992-39.485 11.145-82.482 37.048-111.48 67.16-27.077 28.116-43.96 59.469-51.59 95.805-9.71 46.25 3.285 96.794 36.473 141.86l4.684 6.36v470.66l-11.389 9.545c-23.806 19.952-40.659 41.669-53.992 69.572-21.49 44.975-26.261 93.463-13.677 139 19.214 69.526 75.363 124.89 147.06 145 6.325 1.774 11.606 3.318 11.735 3.431s1.843 6.474 3.81 14.137c27.862 108.57 71.902 210.38 125.7 290.59 51.528 76.824 107.92 133.96 176.75 179.09 76.082 49.88 157.84 76.221 243.5 78.444 98.249 2.551 192.5-28.345 281.5-92.275 70.579-50.698 133.26-121.59 183.4-207.42 30.921-52.928 60.317-120.17 80.443-184 9.639-30.572 15.232-49.928 19.107-66.129 1.583-6.618 3.029-12.165 3.214-12.326 0.184-0.161 5.452-1.711 11.707-3.444 66.875-18.533 122.91-71.351 144.07-135.81 14.744-44.9 12.405-95.603-6.445-139.74-14.648-34.294-36.667-63.136-63.789-83.554l-4.649-3.5-0.062-36.316 6.581-9.842c5.842-8.736 12.238-19.642 25.123-42.835l3.885-6.993 7.455 0.493c44.175 2.922 83.275-8.178 114.46-32.495 33.052-25.768 53.312-64.911 56.121-108.43 1.539-23.831-5.376-54.6-17.886-79.586-5.052-10.09-8.005-14.439-18.67-27.5-61.352-75.134-134.13-143.67-215.21-202.68-98.889-71.965-207.36-133.28-315.87-178.54-41.596-17.352-105.72-40.255-132-47.147-3.025-0.793-11.125-3.038-18-4.988-13.198-3.744-46.025-12.005-64.5-16.232-36.129-8.266-100.39-19.044-130.5-21.888-3.025-0.286-12.475-1.191-21-2.011-32.172-3.095-65.707-4.647-107-4.952-23.375-0.173-45.65-0.159-49.5 0.032m721.65 373.37c12.727 3.93 26.693 14.474 34.128 25.765 5.703 8.661 8.418 16.109 9.938 27.264l1.214 8.916 5.535 0.569c17.083 1.755 28.279 6.907 39.878 18.35 13.575 13.392 18.666 26.639 17.937 46.671-0.314 8.633-0.967 12.588-3.035 18.381-8.11 22.714-28.395 38.141-53.386 40.598l-7.141 0.702-0.716 7.639c-1.451 15.484-8.406 29.333-20.122 40.069-12.134 11.119-25.879 16.433-42.38 16.386-22.004-0.063-39.289-9.421-51.693-27.987-6.591-9.865-9.807-18.445-10.839-28.919l-0.7-7.098-7.228-0.546c-31.098-2.352-56.681-30.189-56.727-61.725-0.026-17.286 5.603-31.383 17.186-43.045 11.76-11.841 24.332-18.018 39.694-19.506l7.194-0.696 0.65-5.627c0.357-3.094 1.278-8.146 2.045-11.227 6.043-24.255 25.72-42.299 51.175-46.93 6.847-1.245 20.004-0.287 27.393 1.996m-29.115 32.177c-7.525 2.972-15.167 10.729-17.505 17.769-2.595 7.811-1.737 17.59 2.323 26.477 3.716 8.135 3.902 11.734 0.881 17.018-2.913 5.094-6.426 7.609-11.598 8.303-3.398 0.455-5.558-0.073-11.414-2.794-13.653-6.345-26.931-5.028-36.556 3.626-15.415 13.859-11.846 39.404 6.834 48.925 8.991 4.583 20.253 4.017 31.199-1.568 5.813-2.965 12.028-2.725 16.432 0.634 7.943 6.059 9.12 12.178 4.256 22.12-3.08 6.294-3.352 7.617-3.366 16.348-0.018 10.799 1.449 14.678 8.031 21.233 6.322 6.298 11.55 8.267 21.948 8.267 8.217 0 9.478-0.27 14.5-3.102 14.302-8.067 18.726-24.796 11.133-42.095-3.657-8.332-3.853-11.196-1.148-16.737 4.501-9.218 12.805-11.057 24.515-5.43 6.168 2.964 7.951 3.362 15 3.345 6.695-0.017 8.816-0.45 13-2.66 11.194-5.913 16.715-14.964 16.666-27.325-0.046-11.917-4.82-20.204-15.166-26.331-4.042-2.394-5.466-2.661-14-2.629-8.641 0.034-10.088 0.327-16 3.25-7.652 3.782-12.006 4.017-17.5 0.943-4.431-2.479-8.5-9.191-8.5-14.023 0-1.579 1.388-6.032 3.083-9.896 6.027-13.731 4.67-26.42-3.837-35.882-6.213-6.909-10.999-9.18-20.246-9.602-5.908-0.27-8.66 0.115-12.965 1.816m-646.04 192.88c57.171 1.763 104.9 5.739 156 12.998 135.34 19.224 264.03 57.389 398 118.03 18.937 8.571 71.911 34.828 116.5 57.742 32.651 16.78 49.163 22.341 75.112 25.297 15.846 1.805 35.669-0.499 47.638-5.536l3.75-1.578v14.198c0 18.92 0.507 19.969 14.789 30.584 35.112 26.094 57.703 62.562 66.656 107.6 6.852 34.468 2.584 67.505-12.964 100.36-9.944 21.012-23.443 38.941-41.356 54.928-24.011 21.431-50.781 35.069-82.274 41.917-12.876 2.8-17.576 5.013-20.249 9.539-0.873 1.478-4.53 14.324-8.127 28.545-51.373 203.16-153.64 362.71-289.48 451.62-72.576 47.502-152.86 72.737-231.41 72.737-135.92 0-268.25-70.146-368.33-195.25-45.14-56.426-84.816-126.6-116.62-206.25-16.851-42.203-29.848-82.802-42.7-133.38-2.149-8.458-4.719-16.783-5.71-18.5-2.407-4.17-8.839-7.172-19.445-9.074-23.956-4.295-51.807-17.036-72.288-33.068-35.591-27.86-58.508-65.326-66.048-107.98-2.522-14.265-2.339-38.253 0.409-53.678 4.219-23.683 14.071-48.076 27.58-68.291 12.29-18.39 23.824-30.353 42.507-44.087 6.198-4.556 8.666-7.099 10.569-10.89l2.483-4.947v-214.32l9.25 4.637c20.122 10.089 39.329 11.221 73.75 4.346 68.878-13.757 154.68-24.137 225.5-27.281 22.297-0.99 29.841-1.205 62-1.761 6.6-0.114 26.625 0.243 44.5 0.794m416 209.12c-44.704 3.653-87.178 19.991-125.34 48.216-8.139 6.019-10.657 9.716-10.657 15.648 0 7.209 6.473 15.116 13.445 16.424 5.351 1.004 9.701-0.8 21.555-8.936 20.418-14.014 32.826-20.564 52.199-27.557 21.456-7.745 37.126-10.816 59.301-11.623 19.308-0.703 32.041 0.61 50 5.153 25.849 6.539 44.726 15.18 70.246 32.155 8.558 5.693 16.995 10.62 18.748 10.949 10.599 1.988 21.575-9.144 19.038-19.308-1.357-5.439-4.858-9.386-13.935-15.715-39.336-27.425-77.753-41.753-121.9-45.465-14.186-1.193-17.442-1.187-32.696 0.059m-251 187.99c-3.183 1.27-6.813 4.651-8.527 7.943-0.734 1.411-2.95 14.686-4.923 29.5-1.974 14.814-7.168 53.709-11.544 86.434-17.68 132.23-20.135 151.68-19.759 156.59 0.464 6.052 3.282 10.483 8.133 12.785 3.047 1.445 10.472 1.623 67.788 1.623h64.367l3.589-2.439c9.387-6.379 9.164-19.845-0.448-26.969-2.768-2.052-3.83-2.097-55.833-2.368l-53.011-0.275 0.573-3.725c0.315-2.048 1.27-9.349 2.122-16.224 4.104-33.126 17.531-134.32 28.484-214.68 2.141-15.71 1.796-18.534-2.898-23.693-4.625-5.084-12.037-6.927-18.113-4.504m150.99 1.127c-7.53 5.124-10.054 13.855-6.167 21.324 3.196 6.138 16.127 20.386 26.089 28.744 20.95 17.578 39.28 27.233 63.116 33.248 14.259 3.598 40.651 4.53 56.15 1.982 20.76-3.412 42.544-12.698 61.79-26.338 10.958-7.766 28.752-25.066 34.541-33.582 3.522-5.181 3.991-6.553 3.991-11.676 0-6.508-1.825-9.847-7.49-13.702-3.99-2.716-10.657-2.986-15.616-0.633-1.875 0.89-5.654 4.44-8.399 7.89-6.311 7.93-20.194 21.107-28.436 26.988-8.447 6.028-25.181 13.89-35.059 16.472-25.124 6.568-50.812 4.172-74.13-6.914-16.976-8.07-28.674-17.24-44.304-34.729-4.887-5.468-9.446-9.61-11.283-10.25-5.124-1.786-11.144-1.308-14.793 1.176" fill-rule="evenodd"/>
<circle cx="787.46" cy="1113" r="89.369" stroke="#000" stroke-linecap="square"/>
<path d="m891.23 1592.5c71.958-2.1721 128.72-13.322 307-28.947" fill="#e6e6e6" stroke="#000" stroke-linecap="square" stroke-width="32"/>
<path d="m1165.8 1150-33.73 33.73" fill="#e6e6e6" stroke="#000" stroke-linecap="round" stroke-width="32"/>
<path d="m1208.2 1189.2-18.739 41.514" fill="#e6e6e6" stroke="#000" stroke-linecap="round" stroke-width="32"/>
<path d="m1269 1197.2 0.5765 46.991" fill="#e6e6e6" stroke="#000" stroke-linecap="round" stroke-width="32"/>
<path d="m1323.7 1189.2 20.757 43.532" fill="#e6e6e6" stroke="#000" stroke-linecap="round" stroke-width="32"/>
<path d="m1370.6 1151.3 34.594 32.288" fill="#e6e6e6" stroke="#000" stroke-linecap="round" stroke-width="32"/>
<path d="m785.3 867.17-172.97 244.47 179.89 242.16 166.47-246.77z" fill="none" stroke="#000" stroke-linecap="round" stroke-width="32"/>
<path transform="matrix(2.4355 0 0 2.4355 -1283.5 68.366)" d="m980.18 154.52c-7.0888-24.591-6.3689-51.37 2.0306-75.544 8.3996-24.174 24.439-45.63 45.249-60.528 2.2542-1.6138 4.5622-3.1525 6.9189-4.6126" fill="none" stroke="#000" stroke-linecap="round" stroke-width="32"/>
<path d="m999.78 1842.3c-111.71-6.2559-229.54-67.761-316.12-165.01-80.117-89.985-140.93-209.65-179.97-354.16-4.5309-16.768-9.7803-32.211-11.665-34.317-1.8851-2.1061-10.875-5.579-19.978-7.7175s-27.333-9.0668-40.513-15.396c-20.713-9.9473-26.686-14.218-44.048-31.49-49.788-49.531-64.812-110.64-42.777-174 10.913-31.38 27.808-53.995 65.388-87.528l9.651-8.6114v-216.35l13.261 5.4536c18.48 7.5999 40.916 7.284 87.541-1.2325 41.617-7.6019 111.62-16.788 162.12-21.273 43.771-3.888 175.3-3.887 221.41 2e-3 156.28 13.181 299.1 48.861 447.42 111.78 18.393 7.8019 68.209 31.375 110.7 52.384 53.169 26.287 82.398 39.431 93.735 42.152 19.953 4.7882 49.264 5.1185 63.88 0.71965l10.745-3.2338v30.136l26.243 25.643c28.809 28.15 38.149 42.309 48.864 74.076 9.0509 26.833 10.492 64.296 3.4583 89.932-17.167 62.576-63.781 108.35-128.15 125.84-10.148 2.7574-20.14 5.9002-22.204 6.9841-2.3545 1.2359-6.4843 12.1-11.077 29.14-44.036 163.38-106.7 283.22-196.14 375.11-49.187 50.532-91.241 81.842-145.94 108.66-67.971 33.319-131.88 46.46-205.82 42.319zm-70.605-234.91c16.98-1.2952 68.872-6.4056 115.32-11.356 46.444-4.9507 103.9-10.794 127.69-12.986l43.243-3.9852-0.035-14.058c-0.019-7.7321-0.8938-15.412-1.9431-17.066-2.1593-3.4045-39.624-0.2785-190.6 15.903-46.933 5.0305-99.604 9.797-117.04 10.592l-31.712 1.446v33.877l12.108-0.01c6.6595 0 26.001-1.0654 42.981-2.3607zm172.11-193.7c5.3865-5.952 5.3865-17.052 0-23.004-3.925-4.3371-7.0381-4.6424-47.342-4.6424-23.727 0-47.771-0.6347-53.43-1.4104l-10.29-1.4104 1.8374-13.004c8.7369-61.835 29.63-225.19 29.63-231.66 0-14.044-15.523-22.3-26.919-14.318-6.1036 4.2751-6.2567 5.1567-23.646 136.11-19.805 149.15-19.186 143.39-16.041 149.36 1.4957 2.8405 3.8614 5.927 5.2571 6.8589 1.3957 0.932 32.734 1.7103 69.64 1.7298 64.34 0.034 67.275-0.1558 71.303-4.6071zm-217.97-163.92c48.836-72.412 90.481-134.42 92.545-137.8l3.7523-6.1442-96.005-132.45c-52.802-72.849-97.042-132.72-98.311-133.05-2.3264-0.60265-190.79 264.54-192.16 270.34-0.62245 2.6435 41.801 60.72 175.47 240.21 12.516 16.807 23.468 30.558 24.337 30.558 0.86886-2e-4 41.537-59.246 90.373-131.66zm397.94 6.069c5.1146-5.1146 5.6609-7.5363 5.6609-25.096v-19.435l10.246-2.5801c5.6356-1.4191 11.333-2.5801 12.662-2.5801 1.3282 0 7.0663 9.2613 12.751 20.581 10.676 21.257 14.889 24.945 25.463 22.291 14.948-3.7516 15.994-13.587 4.2553-40.002-4.6539-10.472-8.0353-19.33-7.5142-19.684 0.5211-0.3539 5.7084-4.4303 11.527-9.0588l10.58-8.4153 14.79 13.347c8.1342 7.3409 17.005 14.05 19.714 14.909 10.898 3.4576 24.105-10.112 20.598-21.162-0.7806-2.4593-8.1397-10.925-16.354-18.812-12.539-12.041-14.934-15.578-14.934-22.054 0-5.5855-1.6762-9.0315-6.0768-12.493-10.637-8.3669-15.659-6.4214-37.39 14.484-28.605 27.518-47.791 36.25-79.98 36.399-32.735 0.1521-54.602-9.8606-84.432-38.662-13.759-13.284-19.092-17.001-24.391-17.001-9.8718 0-17.396 8.8394-16.489 19.37 0.6369 7.3925-0.7151 9.7218-12.633 21.765-16.076 16.246-17.987 25.206-7.3299 34.372 8.9067 7.6613 15.551 5.5032 31.575-10.256l13.087-12.871 9.9762 7.6956c5.4868 4.2326 10.409 8.0151 10.938 8.4054 0.5293 0.3904-2.8653 9.523-7.5437 20.295-9.2148 21.216-9.3669 28.603-0.7141 34.664 7.0489 4.9372 16.172 4.1815 21.534-1.7836 2.5652-2.854 7.9336-12.308 11.93-21.008 6.6805-14.544 7.7306-15.702 13.037-14.37 3.1741 0.7967 10.441 2.0885 16.148 2.8708l10.377 1.4223v19.395c0 17.517 0.5481 19.943 5.661 25.056 3.1135 3.1135 8.3498 5.6609 11.636 5.6609s8.5229-2.5474 11.636-5.6609zm-132.56-248.13c21.142-13.292 54.023-28.893 70.184-33.301 7.6108-2.0759 25.452-4.3736 39.648-5.106 42.389-2.1872 75.926 7.9302 122.84 37.058 9.4552 5.8705 19.135 10.674 21.511 10.674 2.3757 0 7.4591-3.1397 11.296-6.977 12.598-12.598 5.7928-22.686-29.148-43.209-64.818-38.072-141.38-43.211-209.91-14.089-18.041 7.666-45.343 24.017-54.916 32.889-8.5674 7.94-8.6475 19.943-0.1776 26.606 8.4307 6.6315 11.731 6.1084 28.676-4.5451z" fill="#fff"/>
<path d="m712.79 1217.9c-43.373-58.386-78.246-107.15-77.495-108.37 9.7533-15.781 149.03-210.17 150.41-209.93 2.2438 0.38866 150.65 205.24 150.65 207.95 0 1.0207-31.31 48.294-69.577 105.05-38.268 56.758-70.827 105.05-72.355 107.33-2.4399 3.6277-12.374-8.7874-81.639-102.03zm109.41-20.938c19.207-7.3353 42.113-30.201 49.611-49.526 6.9014-17.786 7.6777-47.473 1.6886-64.577-8.1878-23.382-31.316-46.561-55.361-55.481-8.692-3.2247-17.584-4.4305-31.686-4.2971-28.031 0.2651-42.793 6.4378-62.481 26.126-17.613 17.613-24.99 33.593-26.877 58.218-3.1731 41.416 25.559 82.037 66.132 93.497 15.06 4.2537 42.247 2.4283 58.974-3.9597z" fill="#ccc"/>
<path d="m1471.8 747.59c-21.25-7.5641-41.829-33.367-41.889-52.52-0.021-6.8388-0.5697-7.272-10.977-8.6722-22.265-2.9954-43.473-20.773-50.95-42.708-11.618-34.085 13.312-73.071 50.089-78.332 10.195-1.4583 10.595-1.818 12.15-10.928 5.5234-32.355 29.884-53.953 60.783-53.89 15.95 0.0324 28.469 4.9271 41.206 16.11 10.642 9.3443 15.441 18.155 18.817 34.553l2.6112 12.682 10.42 1.4906c19.304 2.7613 36.915 15.312 46.459 33.109 3.8749 7.2258 4.9558 13.263 4.987 27.857 0.036 16.743-0.6682 19.782-6.9462 29.982-8.893 14.449-24.983 25.366-42.45 28.803l-13.442 2.6447-1.0875 9.6479c-4.247 37.679-44.232 62.826-79.779 50.172zm40.85-35.033c9.3886-9.3886 11.115-20.02 5.9954-36.928-3.8848-12.831-3.8896-13.82-0.095-19.611 4.3458-6.6325 8.6016-6.7636 27.946-0.86063 12.096 3.6911 20.638 1.4256 30.027-7.9637 14.034-14.034 12.383-36.246-3.4905-46.943-9.1808-6.1869-21.305-6.7529-33.702-1.5732-17.068 7.1314-27.269-4.1096-20.86-22.986 4.5237-13.324 4.5801-17.843 0.3493-27.969-8.9707-21.47-41.998-23.137-54.43-2.7473-5.4742 8.9781-5.7062 18.069-0.8264 32.391 3.4097 10.007 3.3994 11.286-0.1344 16.679-5.3336 8.1401-9.1692 9.0257-20.443 4.7201-20.066-7.6633-37.865-2.0364-44.608 14.102-7.4329 17.79 1.7073 36.92 20.302 42.491 6.9663 2.0872 10.856 1.8294 20.627-1.3664 21.955-7.1812 31.437 0.8689 23.99 20.368-5.9105 15.477-3.6289 28.173 6.7764 37.709 7.3089 6.6981 9.6396 7.4969 21.875 7.4969 12.18 0 14.469-0.77512 20.703-7.0087z" fill="#fff"/>
</svg>
